<svg width="24" height="24" viewBox="0 0 24 24" fill="none" xmlns="http://www.w3.org/2000/svg">
  <g transform="scale(0.014) translate(0, 0)">
    <path fill="#fff" d="M44.45,309.88h227.47v-111.41h43.88c.09,1.03.3,2.29.3,3.56.02,40.5.04,81,.01,121.5,0,13.7-12.12,27.61-25.73,29.5-4.38.61-8.84.99-13.26.99-81,.06-162-.04-242.99.11C15.11,354.15-.06,339.19,0,320c.25-82.83.13-165.66.09-248.49,0-18.74,13.87-33.72,33.17-33.56,39.16.34,78.33.11,117.5.11,1.62,0,3.25,0,5.11,0v42.74H44.45v229.08Z"/>
    <path fill="#fff" d="M1173.17,356.95h-48.99c-13.6-20.31-27.45-40.99-41.37-61.78h-33.43v61.53h-41.97v-192.65c1.66,0,3.26,0,4.87,0,28.5,0,57-.39,85.49.14,15.94.29,31.49,3.34,45.01,12.82,12.92,9.06,20.82,21.36,23.29,36.95,2.16,13.64,1.77,27.09-3.46,40.19-4.67,11.67-12.4,20.6-23.07,27.03-4.15,2.5-8.54,4.58-13.28,7.08,15.5,22.7,30.96,45.35,46.9,68.7ZM1049.44,202.06v54.99c17.73,0,35.34,1.72,52.46-.44,20.8-2.62,27.19-21.24,20.99-37.81-4.39-11.72-14.92-15.94-26.24-16.54-15.59-.83-31.26-.21-47.21-.21Z"/>
    <path fill="#fff" d="M824.74,357.01h-42.43c2.21-5.55,4.21-10.85,6.42-16.06,13.26-31.28,26.55-62.53,39.85-93.79,10.62-24.98,21.16-50,31.98-74.88,2.51-5.77,7.45-9.07,13.98-9.19,6.66-.12,13.34-.2,20,.02,5.95.2,10.24,3.37,12.57,8.77,10.42,24.15,20.78,48.34,31.06,72.55,9.79,23.04,19.4,46.15,29.19,69.19,5.47,12.86,11.17,25.62,16.73,38.44.64,1.49,1.05,3.08,1.64,4.85h-43.53c-5.6-13.65-11.26-27.45-17.04-41.52h-83.32c-5.62,13.68-11.34,27.62-17.1,41.64ZM883.47,213.18c-9.12,22.35-17.86,43.75-26.77,65.6h53.59c-8.91-21.79-17.66-43.2-26.81-65.6Z"/>
    <path fill="#fff" d="M1249.94,315.27c-5.75,14.16-11.3,27.81-16.9,41.59h-42.77c7.69-18.2,15.25-36.17,22.88-54.12,7.94-18.67,15.96-37.31,23.91-55.98,7.19-16.88,14.3-33.8,21.51-50.67,3.39-7.92,7.13-15.7,10.36-23.68,2.45-6.06,6.99-8.97,13.11-9.28,6.98-.35,13.99-.16,20.99-.06,4.93.07,11.02,5.03,13.07,9.93,8.16,19.45,16.42,38.87,24.67,58.28,8.08,18.99,16.21,37.96,24.29,56.95,7.18,16.89,14.31,33.79,21.45,50.69,2.5,5.91,4.96,11.83,7.55,18.04h-43.71c-5.65-13.79-11.35-27.72-17.07-41.71h-83.37ZM1318.51,278.94c-8.98-22.04-17.72-43.46-26.87-65.92-9.17,22.55-17.91,44.04-26.81,65.92h53.69Z"/>
    <path fill="#fff" d="M687.01,299.05v57.74h-41.52v-192.49c1.21-.08,2.64-.25,4.06-.25,25.99-.01,51.99-.4,77.98.13,19.98.42,38.56,6.11,52.82,20.85,10.75,11.12,16.45,24.88,16.81,40.67.29,12.77-.62,25.11-6.76,36.78-7.47,14.22-19.09,23.43-33.51,29.51-13.18,5.56-27.12,7.08-41.29,7.05-9.3-.02-18.6,0-28.59,0ZM687.29,261.05c12.52,0,24.52-.48,36.46.13,12.77.65,28.96-8.92,31.02-24.45,1.74-13.14-2.3-26.85-17.52-31.59-5.67-1.77-11.77-2.7-17.72-2.95-10.73-.46-21.49-.13-32.24-.13v59Z"/>
    <path fill="#fff" d="M458.85,356.87h-42.48c3.67-8.87,71.54-167.55,78.56-184.52,2.06-4.98,5.76-8.44,10.25-8.94,8.38-.92,17.03-.97,25.41.04,8.69,1.04,11.25,8.99,14.19,15.92,8.5,20.05,74.37,175.61,75.01,177.52h-41.97c-1.66-1.81-59.83-142.96-59.83-142.96,0,0-57.33,138.76-59.12,142.94Z"/>
    <path fill="#fff" d="M1359.4,163.17h43.47c19.3,47.3,38.59,94.58,58.44,143.22,19.79-48.5,39.11-95.85,58.43-143.2h42.69c-3.71,8.84-7.26,17.34-10.85,25.83-9.17,21.7-18.35,43.39-27.55,65.07-6.98,16.45-13.97,32.9-21.01,49.32-6.08,14.2-12.34,28.32-18.31,42.56-2.94,7.03-8.53,10.45-15.49,10.91-7.03.46-14.19-.15-21.23-.94-5.25-.59-8.79-4.25-10.82-9-12.19-28.53-24.25-57.12-36.42-85.66-13.75-32.27-27.57-64.5-41.35-96.76-.11-.27-.01-.63-.01-1.35Z"/>
    <path fill="#fd8f15" d="M201.16,40V.64c1.46-.24,2.69-.44,3.91-.64,42.71,0,85.43.02,128.14.03,9.79,3.88,17.21,10.07,20.1,20.64.47,1.71.57,3.51.85,5.27.31,2.28.89,4.56.89,6.85.05,39.75.04,79.49.04,119.24-13.98-.01-27.95-.02-41.93-.03-.02-34.76-.02-69.52-.11-104.28,0-1.87-.67-3.74-1.03-5.61,0,0,.05,0,.05,0-1.76-.68-3.52-1.96-5.28-1.96-35.21-.14-70.42-.13-105.63-.15Z"/>
    <path fill="#fff" d="M1587.32,356.72v-192.42h41.41v192.42h-41.41Z"/>
    <polygon fill="#fb9016" points="550.46 292.4 574.15 348.83 486.46 290.19 499.32 259.06 550.46 292.4"/>
    <path fill="#fff" d="M1688.1,164.16c5.13,0,10.15,1.32,15.04,3.95,4.89,2.63,8.7,6.4,11.43,11.31,2.73,4.9,4.09,10.02,4.09,15.34s-1.34,10.33-4.03,15.2c-2.69,4.86-6.46,8.64-11.31,11.33s-9.92,4.03-15.22,4.03-10.37-1.34-15.22-4.03c-4.85-2.69-8.63-6.46-11.33-11.33-2.7-4.86-4.05-9.93-4.05-15.2s1.37-10.44,4.11-15.34c2.74-4.9,6.56-8.67,11.45-11.31,4.89-2.63,9.9-3.95,15.04-3.95ZM1688.1,169.22c-4.3,0-8.48,1.1-12.54,3.3-4.07,2.2-7.25,5.35-9.54,9.44-2.3,4.09-3.45,8.36-3.45,12.79s1.13,8.63,3.38,12.67,5.41,7.19,9.46,9.44c4.05,2.26,8.28,3.38,12.68,3.38s8.63-1.13,12.68-3.38c4.05-2.25,7.2-5.4,9.44-9.44,2.24-4.04,3.36-8.26,3.36-12.67s-1.14-8.69-3.42-12.79c-2.28-4.09-5.46-7.24-9.54-9.44-4.08-2.2-8.25-3.3-12.52-3.3ZM1674.68,211.65v-32.91h11.31c3.86,0,6.66.3,8.39.91,1.73.61,3.11,1.67,4.13,3.18,1.03,1.51,1.54,3.12,1.54,4.82,0,2.4-.86,4.5-2.57,6.28s-3.99,2.78-6.83,3c1.16.49,2.09,1.07,2.8,1.74,1.32,1.3,2.94,3.47,4.86,6.52l4.01,6.44h-6.48l-2.92-5.19c-2.3-4.08-4.15-6.63-5.55-7.66-.97-.76-2.39-1.13-4.26-1.13h-3.12v13.98h-5.31ZM1679.99,193.13h6.44c3.08,0,5.18-.46,6.3-1.38,1.12-.92,1.68-2.13,1.68-3.65,0-.97-.27-1.84-.81-2.61-.54-.77-1.29-1.34-2.25-1.72-.96-.38-2.74-.57-5.33-.57h-6.04v9.93Z"/>
  </g>
  <defs>
<clipPath id="clip0_aparavi">
<rect width="24" height="24" fill="white"/>
</clipPath>
</defs>
</svg>